<svg version="1.1" id="Layer_1" xmlns="http://www.w3.org/2000/svg" xmlns:xlink="http://www.w3.org/1999/xlink" x="0px" y="0px"
	 width="25%" viewBox="0 0 100 210" enable-background="new 0 0 151 0" xml:space="preserve">
<path fill="#DFAF65" opacity="1.000000" stroke="none" 
	d="
M71.767349,146.310730 
	C57.375042,128.629471 43.184757,111.241096 28.979130,93.865273 
	C26.246813,90.523193 23.282152,87.352440 20.792313,83.841896 
	C20.024372,82.759140 19.757608,80.232010 20.473719,79.345024 
	C37.909485,57.748741 55.508331,36.284111 73.093185,14.808354 
	C73.279762,14.580487 73.669350,14.518844 74.672318,14.045132 
	C74.933022,21.620161 76.216148,28.434288 70.398438,35.016277 
	C58.969284,47.946877 48.374134,61.614635 36.696419,75.878189 
	C49.836407,75.878189 61.989143,75.878189 74.558365,75.878189 
	C74.558365,100.420113 74.558365,124.296722 74.558365,148.858917 
	C73.482697,147.925629 72.723358,147.266815 71.767349,146.310730 
M64.696236,119.191544 
	C64.815460,112.075455 65.002777,104.959702 65.038460,97.843193 
	C65.096710,86.225548 65.054993,86.225403 53.578316,86.225746 
	C48.402596,86.225906 43.226871,86.225777 38.051151,86.225777 
	C37.884926,86.719894 37.718700,87.214020 37.552471,87.708138 
	C39.898865,90.626968 42.197453,93.585823 44.600880,96.456902 
	C51.057610,104.169975 57.559147,111.845528 64.696236,119.191544 
	z"/>
<path fill="#A48969" opacity="1.000000" stroke="none" 
	d="
M86.106071,34.887970 
	C78.776947,28.907249 81.565620,21.120752 81.093925,12.431149 
	C86.702568,19.208542 91.434731,24.872253 96.107841,30.584272 
	C108.622040,45.880569 121.029266,61.265533 133.670609,76.455811 
	C136.618256,79.997803 136.782791,82.280060 133.606033,86.073608 
	C118.038063,104.664169 102.877922,123.596230 87.569489,142.404205 
	C85.721191,144.675018 83.847603,146.925217 82.001755,149.165558 
	C77.145889,135.621063 85.928024,127.604614 93.212471,118.884636 
	C101.692070,108.733955 109.936012,98.386414 119.354668,86.805679 
	C105.759621,86.805679 93.639969,86.805679 81.322891,86.805679 
	C81.322891,82.898476 81.322891,79.946167 81.322891,76.295685 
	C93.714615,76.295685 106.055656,76.295685 119.706757,76.295685 
	C107.995888,61.884315 97.149689,48.537014 86.106071,34.887970 
	z"/>
<!-- Text -->
    <text x="35" y="180" font-family="Times New Roman" font-size="30" fill="orange">Gelose</text>
    <text x="9" y="210" font-family="Times New Roman" font-size="30" fill="white">Enterprises</text>
</svg>
