<svg version="1.1" id="Layer_1" xmlns="http://www.w3.org/2000/svg" xmlns:xlink="http://www.w3.org/1999/xlink" x="0px" y="0px"
	 width="35%" viewBox="0 0 151 159" enable-background="new 0 0 151 0" xml:space="preserve">
<path fill="#FEFEFE" opacity="1.000000" stroke="none" 
	d="
M88.000000,160.000000 
	C58.666668,160.000000 29.833334,160.000000 1.000000,160.000000 
	C1.000000,107.000000 1.000000,54.000000 1.000000,1.000000 
	C51.333332,1.000000 101.666664,1.000000 152.000000,1.000000 
	C152.000000,54.000000 152.000000,107.000000 152.000000,160.000000 
	C130.833328,160.000000 109.666664,160.000000 88.000000,160.000000 
M71.964027,146.608002 
	C72.723358,147.266815 73.482697,147.925629 74.558365,148.858917 
	C74.558365,124.296722 74.558365,100.420113 74.558365,75.878189 
	C61.989143,75.878189 49.836407,75.878189 36.696419,75.878189 
	C48.374134,61.614635 58.969284,47.946877 70.398438,35.016277 
	C76.216148,28.434288 74.933022,21.620161 74.672318,14.045132 
	C73.669350,14.518844 73.279762,14.580487 73.093185,14.808354 
	C55.508331,36.284111 37.909485,57.748741 20.473719,79.345024 
	C19.757608,80.232010 20.024372,82.759140 20.792313,83.841896 
	C23.282152,87.352440 26.246813,90.523193 28.979130,93.865273 
	C43.184757,111.241096 57.375042,128.629471 71.964027,146.608002 
M86.303490,35.189709 
	C97.149689,48.537014 107.995888,61.884315 119.706757,76.295685 
	C106.055656,76.295685 93.714615,76.295685 81.322891,76.295685 
	C81.322891,79.946167 81.322891,82.898476 81.322891,86.805679 
	C93.639969,86.805679 105.759621,86.805679 119.354668,86.805679 
	C109.936012,98.386414 101.692070,108.733955 93.212471,118.884636 
	C85.928024,127.604614 77.145889,135.621063 82.001755,149.165558 
	C83.847603,146.925217 85.721191,144.675018 87.569489,142.404205 
	C102.877922,123.596230 118.038063,104.664169 133.606033,86.073608 
	C136.782791,82.280060 136.618256,79.997803 133.670609,76.455811 
	C121.029266,61.265533 108.622040,45.880569 96.107841,30.584272 
	C91.434731,24.872253 86.702568,19.208542 81.093925,12.431149 
	C81.565620,21.120752 78.776947,28.907249 86.303490,35.189709 
z"/>
<path fill="#DFAF65" opacity="1.000000" stroke="none" 
	d="
M71.767349,146.310730 
	C57.375042,128.629471 43.184757,111.241096 28.979130,93.865273 
	C26.246813,90.523193 23.282152,87.352440 20.792313,83.841896 
	C20.024372,82.759140 19.757608,80.232010 20.473719,79.345024 
	C37.909485,57.748741 55.508331,36.284111 73.093185,14.808354 
	C73.279762,14.580487 73.669350,14.518844 74.672318,14.045132 
	C74.933022,21.620161 76.216148,28.434288 70.398438,35.016277 
	C58.969284,47.946877 48.374134,61.614635 36.696419,75.878189 
	C49.836407,75.878189 61.989143,75.878189 74.558365,75.878189 
	C74.558365,100.420113 74.558365,124.296722 74.558365,148.858917 
	C73.482697,147.925629 72.723358,147.266815 71.767349,146.310730 
M64.696236,119.191544 
	C64.815460,112.075455 65.002777,104.959702 65.038460,97.843193 
	C65.096710,86.225548 65.054993,86.225403 53.578316,86.225746 
	C48.402596,86.225906 43.226871,86.225777 38.051151,86.225777 
	C37.884926,86.719894 37.718700,87.214020 37.552471,87.708138 
	C39.898865,90.626968 42.197453,93.585823 44.600880,96.456902 
	C51.057610,104.169975 57.559147,111.845528 64.696236,119.191544 
z"/>
<path fill="#A48969" opacity="1.000000" stroke="none" 
	d="
M86.106071,34.887970 
	C78.776947,28.907249 81.565620,21.120752 81.093925,12.431149 
	C86.702568,19.208542 91.434731,24.872253 96.107841,30.584272 
	C108.622040,45.880569 121.029266,61.265533 133.670609,76.455811 
	C136.618256,79.997803 136.782791,82.280060 133.606033,86.073608 
	C118.038063,104.664169 102.877922,123.596230 87.569489,142.404205 
	C85.721191,144.675018 83.847603,146.925217 82.001755,149.165558 
	C77.145889,135.621063 85.928024,127.604614 93.212471,118.884636 
	C101.692070,108.733955 109.936012,98.386414 119.354668,86.805679 
	C105.759621,86.805679 93.639969,86.805679 81.322891,86.805679 
	C81.322891,82.898476 81.322891,79.946167 81.322891,76.295685 
	C93.714615,76.295685 106.055656,76.295685 119.706757,76.295685 
	C107.995888,61.884315 97.149689,48.537014 86.106071,34.887970 
z"/>
<path fill="#FDFAF6" opacity="1.000000" stroke="none" 
	d="
M64.369568,119.363762 
	C57.559147,111.845528 51.057610,104.169975 44.600880,96.456902 
	C42.197453,93.585823 39.898865,90.626968 37.552471,87.708138 
	C37.718700,87.214020 37.884926,86.719894 38.051151,86.225777 
	C43.226871,86.225777 48.402596,86.225906 53.578316,86.225746 
	C65.054993,86.225403 65.096710,86.225548 65.038460,97.843193 
	C65.002777,104.959702 64.815460,112.075455 64.369568,119.363762 
z"/>
<!-- Text -->
    <text x="35" y="180" font-family="Times New Roman" font-size="25" fill="saddlebrown">GELOS</text>
     <text x="5" y="205" font-family="Times New Roman" font-size="25" fill="black">ENTERPRISES</text>
   
</svg>


